<svg width="26" height="26" viewBox="0 0 26 26" fill="none" xmlns="http://www.w3.org/2000/svg">
<path fill-rule="evenodd" clip-rule="evenodd" d="M9.5 1.00098C9.22386 1.00098 9 1.22483 9 1.50098V24.501C9 24.7771 9.22386 25.001 9.5 25.001H11.5C11.7761 25.001 12 24.7771 12 24.501V1.50098C12 1.22483 11.7761 1.00098 11.5 1.00098H9.5ZM3.5 15.001C3.22386 15.001 3 15.2248 3 15.501V24.501C3 24.7771 3.22386 25.001 3.5 25.001H5.5C5.77614 25.001 6 24.7771 6 24.501V15.501C6 15.2248 5.77614 15.001 5.5 15.001H3.5ZM21 5.50098C21 5.22483 21.2239 5.00098 21.5 5.00098H23.5C23.7761 5.00098 24 5.22483 24 5.50098V24.501C24 24.7771 23.7761 25.001 23.5 25.001H21.5C21.2239 25.001 21 24.7771 21 24.501V5.50098ZM15.5 11.001C15.2239 11.001 15 11.2248 15 11.501V24.501C15 24.7771 15.2239 25.001 15.5 25.001H17.5C17.7761 25.001 18 24.7771 18 24.501V11.501C18 11.2248 17.7761 11.001 17.5 11.001H15.5Z" fill="white"/>
</svg>
