<svg width="26" height="26" viewBox="0 0 26 26" fill="none" xmlns="http://www.w3.org/2000/svg">
<path fill-rule="evenodd" clip-rule="evenodd" d="M6.95554 3.60696C7.43149 4.08292 7.43149 4.85458 6.95554 5.33054L4.16107 8.125H17.4688C18.6627 8.125 20.5384 8.34237 22.1583 9.31431C23.8655 10.3386 25.1875 12.1495 25.1875 15.0312C25.1875 17.913 23.8655 19.7239 22.1583 20.7482C20.5384 21.7201 18.6627 21.9375 17.4688 21.9375H13.4062C12.7332 21.9375 12.1875 21.3918 12.1875 20.7188C12.1875 20.0457 12.7332 19.5 13.4062 19.5H17.4688C18.4415 19.5 19.8158 19.3111 20.9042 18.6581C21.9054 18.0574 22.75 17.0245 22.75 15.0312C22.75 13.038 21.9054 12.0051 20.9042 11.4044C19.8158 10.7514 18.4415 10.5625 17.4688 10.5625H4.16107L6.95554 13.357C7.43149 13.8329 7.43149 14.6046 6.95554 15.0805C6.47958 15.5565 5.70792 15.5565 5.23196 15.0805L0.356964 10.2055C-0.118988 9.72958 -0.118988 8.95792 0.356964 8.48196L5.23196 3.60696C5.70792 3.13101 6.47958 3.13101 6.95554 3.60696Z" fill="white"/>
</svg>
