<svg width="28" height="28" viewBox="0 0 28 28" fill="none" xmlns="http://www.w3.org/2000/svg">
<path fill-rule="evenodd" clip-rule="evenodd" d="M16.84 18.2813C18.1 17.5688 19 16.0547 19 12.9375C19 7.74219 16.5 7 14 7C11.5 7 9 7.74219 9 12.9375C9 16.0547 9.9 17.5688 11.16 18.2813C12 18.7563 13 18.875 14 18.875C15 18.875 16 18.7563 16.84 18.2813ZM10.25 20.0625C8.17893 20.0625 6.5 21.6575 6.5 23.625C6.5 24.9367 7.61929 26 9 26H19C20.3807 26 21.5 24.9367 21.5 23.625C21.5 21.6575 19.8211 20.0625 17.75 20.0625H10.25Z" fill="#5F8C1B"/>
<path d="M27 14C27 21.1797 21.1797 27 14 27C6.8203 27 1 21.1797 1 14C1 6.8203 6.8203 1 14 1C21.1797 1 27 6.8203 27 14Z" stroke="#5F8C1B" stroke-width="2"/>
</svg>
