<svg width="26" height="26" viewBox="0 0 26 26" fill="none" xmlns="http://www.w3.org/2000/svg">
<g clip-path="url(#clip0_1632_20062)">
<path d="M18.0625 14.2305C19.5467 15.238 20.5867 16.603 20.5867 18.423V21.673H24.92V18.423C24.92 16.0613 21.0525 14.6638 18.0625 14.2305Z" fill="white"/>
<path d="M16.2533 13.0075C18.6475 13.0075 20.5867 11.0683 20.5867 8.67415C20.5867 6.27999 18.6475 4.34082 16.2533 4.34082C15.7442 4.34082 15.2675 4.44915 14.8125 4.60082C15.7117 5.71665 16.2533 7.13582 16.2533 8.67415C16.2533 10.2125 15.7117 11.6317 14.8125 12.7475C15.2675 12.8992 15.7442 13.0075 16.2533 13.0075Z" fill="white"/>
<path d="M9.75521 13.0075C12.1494 13.0075 14.0885 11.0683 14.0885 8.67415C14.0885 6.27999 12.1494 4.34082 9.75521 4.34082C7.36104 4.34082 5.42188 6.27999 5.42188 8.67415C5.42188 11.0683 7.36104 13.0075 9.75521 13.0075ZM9.75521 6.50749C10.9469 6.50749 11.9219 7.48249 11.9219 8.67415C11.9219 9.86582 10.9469 10.8408 9.75521 10.8408C8.56354 10.8408 7.58854 9.86582 7.58854 8.67415C7.58854 7.48249 8.56354 6.50749 9.75521 6.50749Z" fill="white"/>
<path d="M9.75261 14.0908C6.86011 14.0908 1.08594 15.5425 1.08594 18.4242V21.6742H18.4193V18.4242C18.4193 15.5425 12.6451 14.0908 9.75261 14.0908ZM16.2526 19.5075H3.2526V18.435C3.46927 17.655 6.8276 16.2575 9.75261 16.2575C12.6776 16.2575 16.0359 17.655 16.2526 18.4242V19.5075Z" fill="white"/>
</g>
<defs>
<clipPath id="clip0_1632_20062">
<rect width="26" height="26" fill="white"/>
</clipPath>
</defs>
</svg>
