<svg width="24" height="24" viewBox="0 0 24 24" fill="none" xmlns="http://www.w3.org/2000/svg">
<g clip-path="url(#clip0_1632_20084)">
<path d="M16.6849 12.2842C17.1493 12.697 17.1911 13.408 16.7783 13.8724L11.5283 19.7787C11.3225 20.0102 11.0303 20.1467 10.7205 20.1558C10.4108 20.1649 10.1111 20.0458 9.892 19.8268L7.267 17.2018C6.82767 16.7624 6.82767 16.0501 7.267 15.6108C7.70634 15.1714 8.41866 15.1714 8.858 15.6108L10.6393 17.3921L15.0967 12.3776C15.5094 11.9132 16.2205 11.8714 16.6849 12.2842Z" fill="white"/>
<path fill-rule="evenodd" clip-rule="evenodd" d="M7.5 3V1.875C7.5 1.25368 6.99632 0.75 6.375 0.75C5.75368 0.75 5.25 1.25368 5.25 1.875V3C2.76472 3 0.75 5.01472 0.75 7.5V18.75C0.75 21.2353 2.76472 23.25 5.25 23.25H18.75C21.2353 23.25 23.25 21.2353 23.25 18.75V7.5C23.25 5.01472 21.2353 3 18.75 3V1.875C18.75 1.25368 18.2463 0.75 17.625 0.75C17.0037 0.75 16.5 1.25368 16.5 1.875V3H7.5ZM16.5 6.375V5.25H7.5V6.375C7.5 6.99632 6.99632 7.5 6.375 7.5C5.75368 7.5 5.25 6.99632 5.25 6.375V5.25C4.00736 5.25 3 6.25736 3 7.5V9H21V7.5C21 6.25736 19.9926 5.25 18.75 5.25V6.375C18.75 6.99632 18.2463 7.5 17.625 7.5C17.0037 7.5 16.5 6.99632 16.5 6.375ZM3 11.25H21V18.75C21 19.9926 19.9926 21 18.75 21H5.25C4.00736 21 3 19.9926 3 18.75V11.25Z" fill="white"/>
</g>
<defs>
<clipPath id="clip0_1632_20084">
<rect width="24" height="24" fill="white"/>
</clipPath>
</defs>
</svg>
